# Blender 3.5.0
# www.blender.org
mtllib backdrop.mtl
o Plane
v 5.375001 0.000000 7.406251
v 8.000001 2.666667 -5.966668
v -5.375000 0.000000 7.406250
v -8.000001 2.666667 -5.966667
v 5.375000 13.375001 -6.100000
v -5.375001 13.375001 -6.100000
v 8.000001 0.000000 -2.900001
v -8.000002 0.000000 -2.900000
v -2.916667 0.000000 8.791667
v 0.000000 0.000000 9.266668
v 2.916667 0.000000 8.791667
v 8.000000 0.041667 -4.485416
v 8.000001 0.333333 -5.383334
v 8.000000 1.125000 -5.806251
v 4.000000 2.666667 -5.966667
v -0.000000 2.666667 -5.966667
v -4.000000 2.666667 -5.966666
v -7.958334 0.000000 -0.527083
v -7.666667 0.000000 2.283333
v -6.875001 0.000000 5.068751
v 2.916667 14.833334 -6.100001
v -0.000000 15.333334 -6.100001
v -2.916667 14.833334 -6.100001
v 7.958333 5.083333 -6.043751
v 7.666667 8.000000 -6.083334
v 6.875000 10.916667 -6.097919
v -6.875001 10.916667 -6.097917
v -7.666668 8.000000 -6.083334
v -7.958334 5.083333 -6.043750
v 6.875001 0.000000 5.068750
v 7.666667 0.000000 2.283333
v 7.958334 0.000000 -0.527083
v -8.000000 1.125000 -5.806250
v -8.000002 0.333333 -5.383333
v -8.000000 0.041667 -4.485416
v 4.000000 0.000000 -2.900001
v -0.000000 0.000000 -2.900000
v -4.000000 0.000000 -2.900000
v 4.000000 0.041667 -4.485417
v 4.000000 0.333333 -5.383333
v 3.999999 1.125000 -5.806250
v 0.000000 0.041667 -4.485417
v -0.000000 0.333333 -5.383333
v -0.000000 1.125000 -5.806251
v -4.000000 0.041667 -4.485417
v -4.000000 0.333333 -5.383334
v -4.000000 1.125000 -5.806250
v -3.979167 5.102430 -6.043750
v -0.000000 5.111111 -6.043750
v 3.979167 5.102430 -6.043750
v -3.833334 8.152778 -6.083334
v -0.000000 8.222221 -6.083333
v 3.833333 8.152777 -6.083334
v -3.465279 11.463542 -6.097918
v -0.000000 11.694445 -6.097917
v 3.465277 11.463542 -6.097917
v 3.465278 0.000000 5.588281
v 3.833334 0.000000 2.428472
v 3.979167 0.000000 -0.508941
v 0.000000 0.000000 5.807639
v 0.000000 0.000000 2.494445
v -0.000000 0.000000 -0.500694
v -3.465278 0.000000 5.588282
v -3.833334 0.000000 2.428473
v -3.979167 0.000000 -0.508941
vn -0.0000 0.9856 0.1694
vn -0.0000 0.7667 0.6420
vn -0.0000 0.2928 0.9562
vn -0.0000 0.9999 0.0132
vn -0.0000 0.9999 0.0131
vn -0.0000 0.0679 0.9977
vn -0.0000 0.0676 0.9977
vn -0.0001 0.0224 0.9997
vn -0.0000 0.0222 0.9998
vn -0.0000 0.0085 1.0000
vn -0.0003 0.0088 1.0000
vn 0.0001 0.0224 0.9997
vn 0.0003 0.0088 1.0000
vn -0.0000 0.0024 1.0000
vn -0.0002 0.0026 1.0000
vn 0.0002 0.0026 1.0000
vn -0.0002 0.0229 0.9997
vn 0.0002 0.0229 0.9997
vn 0.0004 0.0097 1.0000
vn 0.0004 0.0036 1.0000
vn 0.0003 0.0008 1.0000
vn 0.0001 0.0007 1.0000
vn -0.0000 0.0006 1.0000
vn -0.0001 0.0007 1.0000
vn -0.0004 0.0036 1.0000
vn -0.0003 0.0008 1.0000
vn -0.0004 0.0097 1.0000
vn -0.0000 1.0000 -0.0000
vt 0.088111 0.937532
vt 0.000073 0.424940
vt 0.448646 0.937532
vt 0.536683 0.424940
vt 0.088111 0.065752
vt 0.448645 0.065752
vt 0.000073 0.591880
vt 0.536683 0.591880
vt 0.366198 0.983996
vt 0.268379 0.999927
vt 0.170559 0.983996
vt 0.000073 0.538690
vt 0.000073 0.507026
vt 0.000073 0.476924
vt 0.134226 0.424940
vt 0.268378 0.424940
vt 0.402531 0.424940
vt 0.535286 0.671463
vt 0.525504 0.765719
vt 0.498953 0.859136
vt 0.170559 0.016842
vt 0.268378 0.000073
vt 0.366198 0.016842
vt 0.001471 0.343849
vt 0.011252 0.246020
vt 0.037804 0.148200
vt 0.498953 0.148199
vt 0.525504 0.246020
vt 0.535286 0.343848
vt 0.037804 0.859137
vt 0.011253 0.765719
vt 0.001471 0.671463
vt 0.536683 0.476924
vt 0.536683 0.507026
vt 0.536683 0.538689
vt 0.134226 0.591880
vt 0.268378 0.591880
vt 0.402531 0.591880
vt 0.134226 0.538689
vt 0.134226 0.507026
vt 0.134226 0.476924
vt 0.268378 0.538689
vt 0.268378 0.507026
vt 0.268378 0.476924
vt 0.402531 0.538689
vt 0.402531 0.507026
vt 0.402531 0.476924
vt 0.401832 0.343208
vt 0.268378 0.342917
vt 0.134924 0.343208
vt 0.396941 0.240897
vt 0.268378 0.238568
vt 0.139815 0.240897
vt 0.384597 0.129859
vt 0.268378 0.122115
vt 0.152159 0.129859
vt 0.152160 0.876561
vt 0.139816 0.770587
vt 0.134925 0.672071
vt 0.268379 0.883917
vt 0.268378 0.772799
vt 0.268378 0.672348
vt 0.384597 0.876560
vt 0.396941 0.770586
vt 0.401832 0.672071
s 1
f 39/39/1 40/40/2 43/43/2 42/42/1
f 40/40/2 41/41/3 44/44/3 43/43/2
f 42/42/1 43/43/2 46/46/2 45/45/1
f 43/43/2 44/44/3 47/47/3 46/46/2
f 7/7/4 12/12/1 39/39/1 36/36/5
f 12/12/1 13/13/2 40/40/2 39/39/1
f 13/13/2 14/14/3 41/41/3 40/40/2
f 14/14/3 2/2/6 15/15/7 41/41/3
f 41/41/3 15/15/7 16/16/7 44/44/3
f 44/44/3 16/16/7 17/17/7 47/47/3
f 47/47/3 17/17/7 4/4/6 33/33/3
f 46/46/2 47/47/3 33/33/3 34/34/2
f 45/45/1 46/46/2 34/34/2 35/35/1
f 38/38/5 45/45/1 35/35/1 8/8/4
f 37/37/5 42/42/1 45/45/1 38/38/5
f 36/36/5 39/39/1 42/42/1 37/37/5
f 48/48/8 49/49/9 52/52/10 51/51/11
f 49/49/9 50/50/12 53/53/13 52/52/10
f 51/51/11 52/52/10 55/55/14 54/54/15
f 52/52/10 53/53/13 56/56/16 55/55/14
f 4/4/6 17/17/7 48/48/8 29/29/17
f 17/17/7 16/16/7 49/49/9 48/48/8
f 16/16/7 15/15/7 50/50/12 49/49/9
f 15/15/7 2/2/6 24/24/18 50/50/12
f 50/50/12 24/24/18 25/25/19 53/53/13
f 53/53/13 25/25/19 26/26/20 56/56/16
f 56/56/16 26/26/20 5/5/21 21/21/22
f 55/55/14 56/56/16 21/21/22 22/22/23
f 54/54/15 55/55/14 22/22/23 23/23/24
f 27/27/25 54/54/15 23/23/24 6/6/26
f 28/28/27 51/51/11 54/54/15 27/27/25
f 29/29/17 48/48/8 51/51/11 28/28/27
f 57/57/28 58/58/28 61/61/28 60/60/28
f 58/58/28 59/59/28 62/62/28 61/61/28
f 60/60/28 61/61/28 64/64/28 63/63/28
f 61/61/28 62/62/28 65/65/28 64/64/28
f 1/1/28 30/30/28 57/57/28 11/11/28
f 30/30/28 31/31/28 58/58/28 57/57/28
f 31/31/28 32/32/28 59/59/28 58/58/28
f 32/32/28 7/7/4 36/36/5 59/59/28
f 59/59/28 36/36/5 37/37/5 62/62/28
f 62/62/28 37/37/5 38/38/5 65/65/28
f 65/65/28 38/38/5 8/8/4 18/18/28
f 64/64/28 65/65/28 18/18/28 19/19/28
f 63/63/28 64/64/28 19/19/28 20/20/28
f 9/9/28 63/63/28 20/20/28 3/3/28
f 10/10/28 60/60/28 63/63/28 9/9/28
f 11/11/28 57/57/28 60/60/28 10/10/28
